<svg id="svg" version="1.1" width="400" height="431.7673378076062" xmlns="http://www.w3.org/2000/svg" xmlns:xlink="http://www.w3.org/1999/xlink" style="display: block;"><g id="svgg"><path id="path0" d="" stroke="none" fill="#000000" fill-rule="evenodd"></path><path id="path1" d="" stroke="none" fill="#550000" fill-rule="evenodd"></path><path id="path2" d="" stroke="none" fill="#990000" fill-rule="evenodd"></path><path id="path3" d="M184.056 0.624 C 180.246 1.319,175.200 2.820,175.200 3.258 C 175.200 3.446,175.020 3.600,174.801 3.600 C 174.239 3.600,169.124 6.010,168.400 6.616 C 168.070 6.893,166.720 7.705,165.400 8.422 C 164.080 9.139,162.637 9.922,162.194 10.163 C 161.751 10.403,160.806 11.017,160.094 11.527 L 158.800 12.454 158.800 41.027 C 158.800 72.396,158.628 70.449,161.244 68.686 C 162.872 67.589,167.758 64.731,170.800 63.096 C 172.010 62.446,173.900 61.329,175.000 60.614 C 184.582 54.388,197.112 53.374,207.083 58.017 C 208.577 58.712,210.160 59.443,210.600 59.640 C 211.546 60.064,212.918 60.904,213.200 61.233 C 213.310 61.362,214.570 62.072,216.000 62.812 C 217.430 63.553,219.110 64.506,219.734 64.931 C 220.358 65.356,221.618 66.095,222.534 66.574 C 223.450 67.053,224.920 67.870,225.800 68.390 C 226.680 68.910,228.570 69.999,230.000 70.811 C 231.430 71.622,233.500 72.805,234.600 73.438 C 235.700 74.072,237.090 74.862,237.690 75.195 C 239.155 76.009,243.693 78.617,246.400 80.201 C 250.127 82.383,254.106 84.659,256.200 85.807 C 257.300 86.410,258.470 87.118,258.800 87.380 C 259.130 87.642,260.750 88.544,262.400 89.384 C 264.050 90.224,265.670 91.131,266.000 91.400 C 266.330 91.668,267.860 92.578,269.400 93.421 C 270.940 94.263,272.290 95.075,272.400 95.224 C 272.510 95.373,273.587 95.993,274.794 96.602 C 276.001 97.211,277.625 98.111,278.402 98.601 C 279.179 99.092,280.801 100.034,282.007 100.696 C 287.233 103.564,291.815 106.190,292.000 106.423 C 292.110 106.562,293.640 107.441,295.400 108.376 C 297.160 109.311,298.884 110.329,299.231 110.638 C 299.579 110.947,300.029 111.202,300.231 111.204 C 300.609 111.207,307.662 115.242,311.607 117.711 C 312.821 118.471,314.801 119.590,316.007 120.199 C 317.213 120.807,318.290 121.426,318.400 121.575 C 318.510 121.723,319.860 122.530,321.400 123.367 C 323.803 124.674,325.488 125.922,328.400 128.550 C 331.289 131.158,335.469 137.986,336.786 142.248 C 338.384 147.424,338.449 150.754,338.313 220.400 C 338.167 294.200,338.342 289.073,335.804 294.000 C 335.294 294.990,334.365 296.789,333.739 297.997 C 332.480 300.424,325.774 307.435,323.800 308.387 C 323.140 308.705,322.330 309.180,322.000 309.443 C 321.472 309.863,318.988 311.301,316.594 312.572 C 316.151 312.807,315.223 313.405,314.533 313.900 C 313.842 314.395,313.171 314.800,313.043 314.800 C 312.914 314.800,310.991 315.880,308.767 317.200 C 306.544 318.520,304.638 319.600,304.531 319.600 C 304.423 319.600,303.405 320.199,302.268 320.931 C 301.131 321.663,297.590 323.757,294.400 325.584 C 291.210 327.411,287.070 329.805,285.200 330.904 C 283.330 332.003,280.360 333.703,278.600 334.680 C 276.840 335.658,273.960 337.340,272.200 338.419 C 270.440 339.498,268.550 340.604,268.000 340.876 C 267.450 341.149,265.470 342.285,263.600 343.401 C 261.730 344.517,259.390 345.855,258.400 346.375 C 257.410 346.894,256.330 347.537,256.000 347.803 C 255.670 348.069,254.140 348.964,252.600 349.791 C 251.060 350.619,249.530 351.532,249.199 351.820 C 248.869 352.108,248.149 352.532,247.599 352.761 C 247.050 352.990,245.700 353.715,244.600 354.371 C 242.157 355.829,236.964 358.835,233.084 361.037 C 231.498 361.937,229.120 363.322,227.800 364.114 C 226.480 364.907,224.590 366.029,223.600 366.607 C 222.610 367.186,220.270 368.561,218.400 369.663 C 216.530 370.765,213.964 372.211,212.698 372.875 C 211.432 373.540,210.306 374.229,210.195 374.408 C 210.085 374.586,208.781 375.192,207.297 375.755 C 195.715 380.146,187.093 379.325,175.154 372.692 C 173.479 371.761,171.859 370.805,171.554 370.566 C 171.249 370.327,169.740 369.446,168.200 368.609 C 165.175 366.964,162.040 365.137,158.110 362.727 C 156.740 361.887,155.484 361.200,155.319 361.200 C 155.042 361.200,151.735 359.290,144.489 354.945 C 142.888 353.985,141.423 353.200,141.234 353.200 C 141.045 353.200,140.015 352.606,138.945 351.879 C 137.875 351.153,136.010 350.053,134.800 349.435 C 133.590 348.816,132.330 348.081,132.000 347.801 C 131.670 347.521,130.419 346.799,129.220 346.198 C 128.021 345.597,126.401 344.701,125.620 344.206 C 124.839 343.712,122.961 342.608,121.447 341.753 C 119.933 340.899,118.223 339.916,117.647 339.570 C 117.071 339.223,115.610 338.392,114.400 337.722 C 108.539 334.479,106.149 333.135,105.600 332.773 C 104.449 332.014,102.975 331.146,99.400 329.121 C 97.420 328.000,95.260 326.769,94.600 326.387 C 84.064 320.277,79.977 318.000,79.545 318.000 C 79.355 318.000,79.200 317.849,79.200 317.665 C 79.200 317.481,77.715 316.562,75.900 315.623 C 74.085 314.683,72.510 313.777,72.400 313.610 C 72.290 313.442,71.210 312.809,70.000 312.203 C 60.830 307.609,53.512 299.758,51.187 292.019 C 49.317 285.794,49.181 283.799,48.927 259.000 L 48.685 235.400 51.842 233.638 C 53.579 232.668,55.450 231.588,56.000 231.238 C 56.550 230.887,58.260 229.875,59.800 228.988 L 62.600 227.375 62.703 197.288 C 62.773 176.754,62.674 167.200,62.391 167.200 C 61.690 167.200,57.383 169.497,56.827 170.167 C 56.538 170.515,56.103 170.800,55.861 170.800 C 55.618 170.800,53.705 171.815,51.610 173.056 C 43.177 178.050,41.325 179.126,39.600 180.031 C 38.610 180.550,37.530 181.180,37.200 181.431 C 36.870 181.682,35.340 182.567,33.800 183.399 C 32.260 184.231,30.910 185.036,30.800 185.189 C 30.690 185.342,29.430 186.054,28.000 186.771 C 26.570 187.489,25.130 188.301,24.800 188.575 C 24.470 188.849,23.120 189.718,21.800 190.505 C 17.398 193.133,11.285 198.962,8.516 203.175 C 7.711 204.399,6.932 205.490,6.784 205.600 C 6.009 206.176,2.195 214.982,1.269 218.333 L 0.200 222.200 0.200 266.000 C 0.200 312.210,0.136 310.405,2.003 316.600 C 2.697 318.902,6.589 327.185,7.172 327.600 C 7.326 327.710,8.052 328.700,8.785 329.800 C 10.363 332.171,10.712 332.574,14.269 336.132 C 17.600 339.465,22.906 343.155,29.000 346.380 C 31.646 347.779,37.444 351.104,39.200 352.228 C 39.970 352.721,41.674 353.689,42.986 354.378 C 44.298 355.068,45.648 355.855,45.986 356.129 C 46.324 356.402,47.410 357.056,48.400 357.582 C 49.390 358.108,51.492 359.318,53.072 360.269 C 54.652 361.221,56.077 362.000,56.238 362.000 C 56.400 362.000,57.808 362.789,59.366 363.753 C 60.925 364.717,63.010 365.911,64.000 366.407 C 64.990 366.902,65.890 367.435,66.000 367.590 C 66.110 367.746,67.685 368.642,69.500 369.581 C 71.315 370.521,72.800 371.449,72.800 371.645 C 72.800 371.840,73.025 372.004,73.300 372.008 C 73.575 372.012,74.970 372.725,76.400 373.593 C 77.830 374.460,80.080 375.737,81.400 376.431 C 82.720 377.124,85.075 378.481,86.634 379.446 C 88.192 380.411,89.604 381.200,89.772 381.200 C 89.939 381.200,90.635 381.597,91.317 382.083 C 92.471 382.905,93.587 383.545,96.600 385.113 C 97.260 385.457,98.357 386.157,99.038 386.669 C 99.719 387.181,100.447 387.600,100.656 387.600 C 100.866 387.600,102.379 388.429,104.018 389.442 C 105.658 390.455,107.990 391.817,109.200 392.470 C 112.595 394.301,117.597 397.131,124.522 401.140 C 127.999 403.153,130.999 404.800,131.189 404.800 C 131.378 404.800,131.593 404.958,131.667 405.150 C 131.740 405.343,133.378 406.378,135.306 407.450 C 144.929 412.802,152.332 417.069,157.800 420.415 C 159.120 421.223,160.562 421.999,161.004 422.138 C 161.446 422.278,162.796 423.044,164.004 423.841 C 165.212 424.637,167.441 425.943,168.957 426.744 C 170.473 427.545,172.453 428.597,173.357 429.082 C 177.748 431.439,179.095 431.600,194.473 431.600 C 211.886 431.600,211.507 431.694,223.600 424.379 C 224.590 423.780,226.525 422.695,227.900 421.968 C 229.275 421.242,230.400 420.501,230.400 420.323 C 230.400 420.146,230.567 420.000,230.771 420.000 C 231.184 420.000,243.283 413.176,243.600 412.764 C 243.710 412.622,244.739 412.032,245.886 411.453 C 247.033 410.874,249.086 409.681,250.448 408.800 C 251.810 407.920,253.091 407.200,253.294 407.200 C 253.498 407.200,254.595 406.588,255.732 405.839 C 256.869 405.090,258.880 403.902,260.200 403.198 C 261.520 402.495,262.870 401.688,263.200 401.405 C 263.530 401.122,264.790 400.396,266.000 399.792 C 267.210 399.187,268.920 398.201,269.800 397.600 C 270.680 396.999,272.327 396.040,273.460 395.468 C 274.592 394.896,276.302 393.901,277.260 393.257 C 278.217 392.614,279.637 391.823,280.416 391.499 C 281.195 391.176,282.107 390.635,282.444 390.299 C 282.781 389.962,284.034 389.195,285.228 388.595 C 287.431 387.489,290.891 385.495,293.800 383.654 C 294.680 383.098,296.570 381.988,298.000 381.188 C 299.430 380.389,301.230 379.367,302.000 378.916 C 302.770 378.466,304.570 377.420,306.000 376.591 C 307.430 375.763,310.000 374.256,311.711 373.242 C 313.422 372.229,315.548 371.009,316.434 370.530 C 317.321 370.052,319.705 368.657,321.733 367.430 C 323.760 366.204,325.578 365.200,325.772 365.200 C 325.966 365.200,326.691 364.768,327.383 364.240 C 328.075 363.712,329.932 362.622,331.511 361.818 C 333.089 361.014,334.482 360.191,334.607 359.989 C 334.731 359.788,335.591 359.262,336.517 358.821 C 338.391 357.928,340.527 356.714,341.296 356.106 C 341.573 355.887,342.610 355.261,343.600 354.715 C 344.590 354.170,347.161 352.706,349.314 351.462 C 351.467 350.218,353.402 349.200,353.614 349.200 C 353.826 349.200,354.000 349.047,354.000 348.859 C 354.000 348.672,355.485 347.747,357.300 346.803 C 359.115 345.859,360.690 344.956,360.800 344.795 C 360.910 344.635,362.080 343.940,363.400 343.251 C 376.025 336.663,385.275 323.838,387.781 309.448 C 388.325 306.326,388.395 297.323,388.359 235.248 C 388.303 140.753,388.074 124.692,386.708 119.600 C 383.251 106.716,373.867 95.155,361.600 88.670 C 360.111 87.883,357.187 86.201,351.494 82.859 C 349.566 81.726,347.908 80.800,347.809 80.800 C 347.709 80.800,346.037 79.855,344.092 78.700 C 342.147 77.545,340.070 76.330,339.476 76.000 C 338.883 75.670,335.132 73.510,331.141 71.200 C 327.150 68.890,322.785 66.404,321.442 65.675 C 320.099 64.947,318.361 63.933,317.580 63.423 C 316.799 62.912,315.179 62.000,313.980 61.395 C 312.781 60.790,311.710 60.164,311.600 60.004 C 311.490 59.843,310.050 59.020,308.400 58.173 C 306.750 57.327,305.137 56.377,304.816 56.062 C 304.495 55.747,303.595 55.224,302.816 54.901 C 302.037 54.577,300.614 53.785,299.654 53.139 C 298.694 52.494,296.804 51.409,295.454 50.730 C 294.104 50.050,292.280 49.002,291.400 48.401 C 290.520 47.799,288.900 46.828,287.800 46.242 C 286.700 45.657,285.080 44.770,284.200 44.273 C 283.320 43.775,281.790 42.925,280.800 42.384 C 279.810 41.843,278.910 41.297,278.800 41.172 C 278.690 41.047,277.610 40.407,276.400 39.750 C 273.021 37.917,267.559 34.771,266.000 33.761 C 265.230 33.262,263.430 32.239,262.000 31.488 C 260.570 30.737,257.780 29.167,255.800 28.000 C 253.820 26.833,250.850 25.113,249.200 24.177 C 241.278 19.687,239.767 18.808,239.345 18.444 C 239.094 18.228,237.474 17.308,235.745 16.400 C 234.015 15.491,231.430 14.043,230.000 13.182 C 228.570 12.320,227.175 11.612,226.900 11.608 C 226.625 11.604,226.400 11.455,226.400 11.277 C 226.400 11.099,224.915 10.168,223.100 9.207 C 221.285 8.246,219.710 7.335,219.600 7.181 C 219.000 6.346,210.373 2.450,207.207 1.585 C 201.166 -0.065,190.302 -0.516,184.056 0.624 M133.397 25.921 C 130.090 28.019,124.479 31.349,122.838 32.189 C 122.088 32.572,121.278 33.059,121.038 33.271 C 120.436 33.801,114.831 37.206,111.227 39.231 C 109.592 40.149,107.540 41.418,106.667 42.051 C 105.794 42.683,104.943 43.200,104.775 43.200 C 101.647 43.200,90.121 53.890,87.848 58.899 C 85.454 64.176,84.982 65.602,84.403 69.316 C 83.682 73.943,84.678 267.460,85.440 270.800 C 87.404 279.403,91.252 283.683,103.000 290.333 C 106.520 292.325,110.409 294.589,111.641 295.365 C 112.874 296.140,114.854 297.258,116.041 297.850 C 117.229 298.441,118.290 299.040,118.400 299.180 C 118.510 299.320,120.130 300.302,122.000 301.362 C 123.870 302.422,126.030 303.648,126.800 304.085 C 127.570 304.522,128.920 305.267,129.800 305.740 C 130.680 306.213,131.490 306.709,131.600 306.842 C 131.710 306.975,132.970 307.707,134.400 308.468 C 137.500 310.117,142.874 313.181,146.200 315.194 C 147.520 315.994,149.250 316.949,150.045 317.316 C 150.840 317.684,151.717 318.259,151.994 318.593 C 152.271 318.927,152.683 319.200,152.909 319.200 C 153.135 319.200,154.598 319.948,156.160 320.862 C 157.722 321.776,160.170 323.191,161.600 324.006 C 163.030 324.822,165.820 326.440,167.800 327.603 C 169.780 328.765,172.390 330.261,173.600 330.927 C 174.810 331.593,176.520 332.563,177.400 333.083 C 186.343 338.362,192.415 339.769,199.600 338.229 C 202.041 337.705,209.075 334.555,210.400 333.392 C 210.730 333.102,212.260 332.202,213.800 331.391 C 215.340 330.581,216.870 329.693,217.200 329.419 C 217.530 329.145,219.218 328.129,220.951 327.160 C 222.683 326.192,225.383 324.650,226.951 323.732 C 230.440 321.690,235.951 318.493,237.932 317.362 C 238.739 316.900,241.020 315.601,243.000 314.475 C 244.980 313.348,247.410 311.929,248.400 311.321 C 249.390 310.714,251.457 309.526,252.992 308.683 C 254.528 307.839,255.878 307.022,255.992 306.868 C 256.107 306.714,257.550 305.891,259.200 305.040 C 260.850 304.188,262.636 303.150,263.169 302.734 C 263.702 302.317,264.872 301.623,265.769 301.191 C 266.666 300.759,267.940 300.049,268.600 299.613 C 269.260 299.178,270.700 298.341,271.800 297.753 C 272.900 297.166,274.880 296.022,276.200 295.210 C 277.520 294.399,279.950 292.956,281.600 292.003 C 283.250 291.051,285.860 289.520,287.400 288.602 C 288.940 287.683,291.028 286.460,292.040 285.884 C 295.798 283.745,299.373 279.163,301.624 273.600 L 303.000 270.200 303.000 217.200 L 303.000 164.200 301.711 160.498 C 299.453 154.011,291.822 145.200,288.462 145.200 C 288.252 145.200,287.144 144.570,286.000 143.800 C 284.856 143.030,283.843 142.400,283.749 142.400 C 283.503 142.400,266.795 132.837,265.594 132.008 C 265.040 131.627,263.420 130.713,261.994 129.979 C 260.567 129.244,259.310 128.543,259.200 128.422 C 258.988 128.186,257.830 127.531,254.619 125.828 C 253.529 125.250,252.359 124.533,252.019 124.234 C 251.678 123.936,250.410 123.200,249.200 122.600 C 247.990 122.000,246.730 121.281,246.400 121.003 C 246.070 120.725,244.360 119.731,242.600 118.794 C 240.840 117.858,238.950 116.779,238.400 116.397 C 237.850 116.015,236.410 115.206,235.200 114.599 C 233.990 113.992,232.910 113.382,232.800 113.244 C 232.690 113.107,231.610 112.469,230.400 111.827 C 226.795 109.916,226.625 109.819,226.000 109.333 C 225.670 109.075,224.140 108.202,222.600 107.391 C 221.060 106.581,219.530 105.686,219.200 105.403 C 218.870 105.120,217.340 104.227,215.800 103.418 C 212.538 101.704,207.380 98.724,206.138 97.836 C 200.925 94.108,185.212 94.057,181.500 97.756 C 181.225 98.029,179.650 98.949,178.000 99.799 C 176.350 100.648,174.730 101.567,174.400 101.839 C 174.070 102.112,172.571 102.986,171.068 103.781 C 169.566 104.577,168.126 105.409,167.868 105.632 C 167.433 106.008,165.184 107.320,158.200 111.275 C 156.660 112.147,153.780 113.823,151.800 115.001 C 149.820 116.178,147.390 117.583,146.400 118.123 C 145.410 118.663,144.147 119.351,143.594 119.652 C 143.041 119.954,142.051 120.581,141.394 121.048 C 140.737 121.514,139.435 122.283,138.500 122.756 L 136.800 123.616 136.800 74.008 C 136.800 34.413,136.698 24.400,136.297 24.400 C 136.020 24.400,134.715 25.084,133.397 25.921 M198.464 153.339 C 199.449 153.636,201.635 154.716,203.321 155.739 C 205.007 156.763,206.469 157.600,206.570 157.600 C 206.671 157.600,208.394 158.600,210.400 159.821 C 212.406 161.043,214.351 162.156,214.723 162.294 C 215.095 162.433,215.850 162.846,216.400 163.212 C 218.051 164.313,230.140 171.259,234.000 173.325 C 235.210 173.973,236.650 174.816,237.200 175.199 C 237.750 175.582,238.990 176.296,239.956 176.785 C 240.922 177.274,241.912 177.840,242.156 178.043 C 242.400 178.245,243.590 179.061,244.800 179.854 C 251.206 184.056,251.059 183.271,251.368 215.000 C 251.705 249.650,251.642 249.932,242.400 255.099 C 240.970 255.899,239.710 256.675,239.600 256.824 C 239.490 256.973,238.449 257.575,237.287 258.161 C 236.124 258.747,234.234 259.827,233.087 260.559 C 231.939 261.292,229.920 262.468,228.600 263.173 C 225.700 264.721,220.354 267.831,219.800 268.293 C 219.580 268.477,218.251 269.222,216.846 269.950 C 215.441 270.678,213.569 271.797,212.686 272.437 C 211.803 273.077,210.918 273.600,210.721 273.600 C 210.523 273.600,209.350 274.247,208.113 275.039 C 196.097 282.725,190.471 282.829,179.200 275.575 C 178.870 275.363,177.250 274.557,175.600 273.785 C 173.950 273.012,169.180 270.585,165.000 268.391 C 160.820 266.198,157.040 264.243,156.600 264.047 C 155.821 263.701,153.684 262.637,146.900 259.218 C 143.147 257.326,140.092 254.499,138.457 251.402 L 137.400 249.400 137.288 219.147 C 137.157 183.861,136.885 186.338,141.407 181.748 C 142.788 180.347,144.118 179.200,144.362 179.200 C 144.607 179.200,145.552 178.660,146.463 178.000 C 147.375 177.340,148.268 176.800,148.449 176.800 C 148.630 176.800,150.088 176.008,151.689 175.040 C 154.877 173.113,158.201 171.143,161.600 169.165 C 162.810 168.461,165.637 166.786,167.881 165.443 C 171.696 163.160,173.291 162.233,180.274 158.242 C 181.773 157.386,183.850 156.155,184.888 155.508 C 189.136 152.861,194.192 152.053,198.464 153.339 " stroke="none" fill="#ed1c24" fill-rule="evenodd"></path><path id="path4" d="M92.801 51.398 C 92.286 51.948,91.939 52.464,92.032 52.546 C 92.124 52.628,92.619 52.178,93.130 51.547 C 94.276 50.135,94.074 50.044,92.801 51.398 M297.200 109.527 C 297.200 109.716,297.650 110.077,298.200 110.327 C 298.750 110.578,299.200 110.717,299.200 110.637 C 299.200 110.557,298.750 110.197,298.200 109.837 C 297.650 109.476,297.200 109.337,297.200 109.527 M328.264 128.799 C 328.887 129.460,329.447 130.000,329.508 130.000 C 329.857 130.000,328.249 128.028,327.741 127.833 C 327.406 127.704,327.641 128.139,328.264 128.799 M294.413 149.100 C 294.419 149.265,294.914 149.746,295.513 150.168 L 296.600 150.936 295.630 149.868 C 294.611 148.746,294.392 148.607,294.413 149.100 M152.000 174.836 C 151.336 175.379,151.269 175.515,151.800 175.240 C 153.105 174.566,153.828 174.012,153.400 174.015 C 153.180 174.017,152.550 174.386,152.000 174.836 M49.105 275.499 C 49.293 283.185,49.450 283.933,49.526 277.500 C 49.567 274.035,49.465 271.200,49.300 271.199 C 49.135 271.199,49.047 273.134,49.105 275.499 M97.200 327.750 C 97.200 327.844,97.841 328.299,98.624 328.761 C 99.407 329.223,99.936 329.420,99.799 329.198 C 99.531 328.764,97.200 327.466,97.200 327.750 M183.809 336.713 C 184.447 337.259,186.470 338.037,186.226 337.642 C 186.103 337.442,185.420 337.076,184.710 336.829 C 183.999 336.581,183.594 336.529,183.809 336.713 M163.400 365.796 C 164.294 366.539,166.828 367.909,166.200 367.310 C 165.980 367.100,165.080 366.524,164.200 366.030 C 163.320 365.535,162.960 365.430,163.400 365.796 M84.400 378.327 C 84.400 378.516,84.850 378.877,85.400 379.127 C 85.950 379.378,86.400 379.517,86.400 379.437 C 86.400 379.357,85.950 378.997,85.400 378.637 C 84.850 378.276,84.400 378.137,84.400 378.327 M119.144 398.376 C 119.664 398.829,120.279 399.200,120.511 399.200 C 121.003 399.200,120.979 399.180,119.400 398.255 L 118.200 397.553 119.144 398.376 " stroke="none" fill="#ff0000" fill-rule="evenodd"></path></g></svg>